<svg width="69" height="69" viewBox="0 0 69 69" fill="none" xmlns="http://www.w3.org/2000/svg">
<path d="M34.5218 6.02795C27.0772 6.02795 21.0249 12.0803 21.0249 19.5249C21.0249 26.8274 26.7362 32.7376 34.1808 32.9934C34.4082 32.965 34.6355 32.965 34.806 32.9934C34.8628 32.9934 34.8912 32.9934 34.948 32.9934C34.9765 32.9934 34.9765 32.9934 35.0049 32.9934C42.279 32.7376 47.9903 26.8274 48.0187 19.5249C48.0187 12.0803 41.9664 6.02795 34.5218 6.02795Z" fill="white"/>
<path d="M48.9565 40.5518C41.0289 35.2667 28.1002 35.2667 20.1157 40.5518C16.5071 42.9671 14.5181 46.2348 14.5181 49.7297C14.5181 53.2247 16.5071 56.464 20.0873 58.8508C24.0654 61.5218 29.2936 62.8573 34.5219 62.8573C39.7502 62.8573 44.9785 61.5218 48.9565 58.8508C52.5368 56.4356 54.5258 53.1963 54.5258 49.6729C54.4974 46.1779 52.5368 42.9387 48.9565 40.5518Z" fill="white"/>
</svg>
