<svg width="120" height="79" viewBox="0 0 120 79" fill="none" xmlns="http://www.w3.org/2000/svg">
    <rect width="120" height="79" rx="8" fill="#EDEEF1"/>
    <rect x="0.5" y="0.5" width="119" height="78" rx="7.5" stroke="#383A42" stroke-opacity="0.1"/>
    <path d="M65.9355 25.834H54.0638C48.9072 25.834 45.833 28.9082 45.833 34.0648V45.9365C45.833 47.4807 46.1022 48.8265 46.6263 49.9598C47.8447 52.6515 50.4513 54.1673 54.0638 54.1673H65.9355C71.0922 54.1673 74.1663 51.0932 74.1663 45.9365V42.6923V34.0648C74.1663 28.9082 71.0922 25.834 65.9355 25.834ZM71.8572 40.709C70.7522 39.7598 68.9672 39.7598 67.8622 40.709L61.9688 45.7665C60.8638 46.7157 59.0788 46.7157 57.9738 45.7665L57.4922 45.3698C56.4863 44.4915 54.8855 44.4065 53.7522 45.1715L48.4538 48.7273C48.1422 47.934 47.958 47.0132 47.958 45.9365V34.0648C47.958 30.0698 50.0688 27.959 54.0638 27.959H65.9355C69.9305 27.959 72.0413 30.0698 72.0413 34.0648V40.8648L71.8572 40.709Z" fill="#AFB0B3"/>
</svg>
